<?xml version="1.0" encoding="utf-8"?>
<!-- Generator: Adobe Illustrator 23.1.0, SVG Export Plug-In . SVG Version: 6.00 Build 0)  -->
<svg version="1.1" id="Layer_1" xmlns="http://www.w3.org/2000/svg" xmlns:xlink="http://www.w3.org/1999/xlink" x="0px" y="0px" viewBox="0 0 1010 210" style="enable-background:new 0 0 1010 210;" xml:space="preserve">
	<g>
		<g>
			<path class="st0" style="fill:#333333;" d="M211.02,160.9h-15.74V13.95h15.74V160.9z" />
			<path class="st0" style="fill:#333333;" d="M320.19,144.11c-8.39,12.32-20.93,18.49-37.59,18.49c-15.1,0-27.42-5.26-36.94-15.75
			c-9.24-10.35-13.86-23.16-13.86-38.42s4.61-28.06,13.86-38.42c9.52-10.5,22.18-15.75,38-15.75s27.98,6.24,36.53,18.69V55.94h15.75
			V160.9h-15.75V144.11z M284.71,148.31c11.34,0,20.3-3.91,26.87-11.75c6.3-7.41,9.45-16.79,9.45-28.13s-3.14-20.72-9.45-28.13
			c-6.58-7.84-15.53-11.75-26.87-11.75c-11.19,0-20.3,3.91-27.28,11.75c-6.58,7.41-9.88,16.79-9.88,28.13s3.3,20.72,9.88,28.13
			C264.41,144.4,273.51,148.31,284.71,148.31z" />
			<path class="st0" style="fill:#333333;" d="M424.94,84.07c-1.4-10.92-10.18-16.38-26.34-16.38c-16.16,0-24.24,5.04-24.24,15.12
			c0,4.19,1.71,7.38,5.14,9.55c3.43,2.17,7.74,3.96,12.92,5.36s10.81,2.69,16.9,3.88c6.08,1.2,11.72,2.87,16.9,5.04
			c5.18,2.17,9.48,5.14,12.92,8.93c3.42,3.78,5.14,8.95,5.14,15.53c0,10.21-3.86,18.02-11.55,23.4c-7.71,5.4-18.13,8.1-31.28,8.1
			c-13.99,0-25.11-3.5-33.38-10.51c-7.55-6.15-11.62-14.2-12.16-24.13h16.37c0.97,9.65,6.44,16.15,16.38,19.52
			c3.62,1.11,7.24,1.67,10.8,1.67c3.57,0,6.9-0.21,9.98-0.63c3.08-0.41,6.08-1.18,9.02-2.31c6.73-2.65,10.08-7.21,10.08-13.64
			c0-4.33-1.71-7.66-5.14-9.97c-3.43-2.31-7.74-4.2-12.9-5.67c-5.19-1.47-10.81-2.79-16.91-3.99c-6.08-1.19-11.72-2.83-16.9-4.93
			c-5.18-2.1-9.48-4.97-12.92-8.61c-3.42-3.64-5.14-8.67-5.14-15.11c0-9.52,3.47-16.91,10.4-22.15c6.92-5.25,17.17-7.88,30.75-7.88
			c12.86,0,23.01,3.08,30.45,9.24c6.15,5.18,9.72,12.04,10.7,20.57H424.94z" />
			<path class="st0" style="fill:#333333;" d="M739.43,144.11c-8.39,12.32-20.93,18.49-37.59,18.49c-15.1,0-27.42-5.26-36.94-15.75
			c-9.24-10.35-13.86-23.16-13.86-38.42s4.61-28.06,13.86-38.42c9.52-10.5,22.18-15.75,38-15.75c15.82,0,27.98,6.24,36.53,18.69
			V55.94h15.75V160.9h-15.75V144.11z M703.95,148.31c11.34,0,20.3-3.91,26.87-11.75c6.3-7.41,9.45-16.79,9.45-28.13
			s-3.14-20.72-9.45-28.13c-6.58-7.84-15.53-11.75-26.87-11.75c-11.19,0-20.3,3.91-27.28,11.75c-6.58,7.41-9.88,16.79-9.88,28.13
			s3.3,20.72,9.88,28.13C683.65,144.4,692.76,148.31,703.95,148.31z" />
			<path class="st0" style="fill:#333333;" d="M864.34,72.74V55.94h15.75v101.82c0,15.1-4.31,26.62-12.92,34.53s-20.19,11.86-34.75,11.86
			c-14.56,0-25.92-2.8-34.12-8.39c-8.18-5.6-13.74-13.02-16.67-22.24h17.41c4.49,10.9,14.71,16.37,30.67,16.37
			c12.16,0,20.98-2.8,26.45-8.41c5.45-5.6,8.18-13.86,8.18-24.77v-14.47c-8.54,12.45-21.07,18.67-37.59,18.67
			c-15.1,0-27.42-5.18-36.94-15.53c-9.24-10.07-13.86-22.67-13.86-37.78c0-15.12,4.61-27.71,13.86-37.79
			c9.52-10.35,22.21-15.54,38.1-15.54S855.95,60.43,864.34,72.74z M828.86,146.64c5.74,0,10.85-1.03,15.33-3.06
			c4.48-2.02,8.34-4.78,11.55-8.28c6.3-7.28,9.45-16.51,9.45-27.71s-3.14-20.43-9.45-27.71c-6.85-7.56-15.82-11.34-26.87-11.34
			c-11.33,0-20.43,3.78-27.28,11.34c-6.58,7.41-9.88,16.66-9.88,27.71s3.3,20.3,9.88,27.71
			C808.42,142.84,817.53,146.64,828.86,146.64z" />
			<path class="st0" style="fill:#333333;" d="M954.19,148.31c14.13,0,24.28-5.88,30.45-17.63h17.2c-3.64,9.52-9.41,17.2-17.31,23.08
			c-7.91,5.89-18.09,8.83-30.55,8.83c-15.82,0-28.7-5.26-38.63-15.75c-9.67-10.21-14.49-23.02-14.49-38.42
			c0-15.54,4.61-28.34,13.86-38.42c9.79-10.5,22.53-15.75,38.2-15.75c15.68,0,28.41,5.25,38.22,15.75
			c9.23,10.07,13.86,22.88,13.86,38.42v6.3h-87.97c1.11,9.66,4.97,17.64,11.55,23.94C935.29,145.1,943.84,148.31,954.19,148.31z
			 M952.93,68.54c-9.65,0-17.77,3.01-24.35,9.02c-6.17,5.74-9.94,13.23-11.34,22.47h71.38c-1.4-9.23-5.18-16.73-11.33-22.47
			C970.69,71.55,962.58,68.54,952.93,68.54z" />
			<path class="st0" style="fill:#333333;" d="M548.6,72.74c8.41-12.31,20.93-18.48,37.59-18.48c15.12,0,27.35,5.25,36.73,15.75
			c9.38,10.35,14.08,23.16,14.08,38.42s-4.7,28.06-14.08,38.42c-9.38,10.49-21.97,15.75-37.79,15.75c-15.8,0-27.98-6.24-36.53-18.69
			v58.57h-15.74V55.94h15.74V72.74z M584.08,68.54c-11.34,0-20.3,3.91-26.87,11.75c-6.3,7.41-9.45,16.79-9.45,28.13
			s3.14,20.72,9.45,28.13c6.58,7.84,15.53,11.75,26.87,11.75c11.19,0,20.3-3.91,27.28-11.75c6.58-7.41,9.88-16.79,9.88-28.13
			s-3.3-20.72-9.88-28.13C604.38,72.45,595.27,68.54,584.08,68.54z" />
			<path class="st0" style="fill:#333333;" d="M513.95,69.8V55.94h-24.14V18.36h-15.75v37.58h-21.41V69.8h21.41v58.21c0,20.3,13.91,34.59,27.82,34.59h12.07
			v-14.28h-12.07c-6.29,0-12.07-5.72-12.07-19.89V69.8H513.95z" />
		</g>
		<g>
			<g>
				<path class="st0" style="fill:#333333;" d="M130.51,50.21H77.87c-2.24,0-4.05,1.81-4.05,4.05c0,2.24,1.81,4.05,4.05,4.05h52.63
				c2.24,0,4.05-1.81,4.05-4.05C134.55,52.02,132.74,50.21,130.51,50.21z" />
				<path class="st0" style="fill:#333333;" d="M130.51,68.54H77.87c-2.24,0-4.05,1.81-4.05,4.05c0,2.24,1.81,4.05,4.05,4.05h52.63
				c2.24,0,4.05-1.81,4.05-4.05C134.55,70.35,132.74,68.54,130.51,68.54z" />
				<path class="st0" style="fill:#333333;" d="M130.51,86.87h-22.27c-2.24,0-4.05,1.79-4.05,4.01c0,2.21,1.81,4.01,4.05,4.01h22.27
				c2.24,0,4.05-1.79,4.05-4.01C134.55,88.67,132.74,86.87,130.51,86.87z" />
			</g>
			<polygon class="st1" style="fill:#3399FF;" points="21.19,168.99 21.19,204.14 51.56,182.52 81.92,204.14 81.92,168.99 		" />
			<polygon class="st0" style="fill:#333333;" points="5,5.86 5,168.99 21.19,168.99 21.19,152.8 21.19,146.52 21.19,22.05 126.46,22.05 126.46,152.8 
			81.92,152.8 81.92,168.99 142.65,168.99 142.65,5.86 		" />
		</g>
	</g>
</svg>